<svg xmlns="http://www.w3.org/2000/svg" xmlns:xlink="http://www.w3.org/1999/xlink" width="63" height="49"><defs><path id="a" d="M1108 5148.2h-52a4 4 0 0 1-4-4v-35a1 1 0 0 1 2 0v35a2 2 0 0 0 2 2h52a2 2 0 0 0 2-2v-38a2 2 0 0 0-2-2h-55a1 1 0 1 1 0-2.01h55a4 4 0 0 1 4 4v38.02a4 4 0 0 1-4 4z"/><path id="b" d="M1105.7 5108.47a1 1 0 0 1 0 1.42l-22.85 22.84a1 1 0 0 1-.85.46 1 1 0 0 1-.85-.46l-22.84-22.84a1 1 0 0 1 1.41-1.42l22.28 22.28 22.28-22.28a1 1 0 0 1 1.41 0z"/></defs><use fill="#6f6f6f" xlink:href="#a" transform="translate(-1050 -5101)"/><use fill="#e8be7b" xlink:href="#b" transform="translate(-1050 -5101)"/></svg>